<svg width="34" height="42" viewBox="0 0 34 42" fill="none" xmlns="http://www.w3.org/2000/svg">
<path d="M17.0005 0C12.626 0.00516071 8.43218 1.74521 5.33894 4.83844C2.24571 7.93167 0.505667 12.1255 0.500506 16.5C0.495266 20.0748 1.66298 23.5527 3.82451 26.4C3.82451 26.4 4.27451 26.9925 4.34801 27.078L17.0005 42L29.659 27.0705C29.725 26.991 30.1765 26.4 30.1765 26.4L30.178 26.3955C32.3385 23.5494 33.5056 20.0732 33.5005 16.5C33.4953 12.1255 31.7553 7.93167 28.6621 4.83844C25.5688 1.74521 21.375 0.00516071 17.0005 0V0ZM17.0005 22.5C15.8138 22.5 14.6538 22.1481 13.6671 21.4888C12.6804 20.8295 11.9114 19.8925 11.4572 18.7961C11.0031 17.6997 10.8843 16.4933 11.1158 15.3295C11.3473 14.1656 11.9187 13.0965 12.7579 12.2574C13.597 11.4182 14.6661 10.8468 15.83 10.6153C16.9938 10.3838 18.2002 10.5026 19.2966 10.9567C20.393 11.4108 21.33 12.1799 21.9893 13.1666C22.6486 14.1533 23.0005 15.3133 23.0005 16.5C22.9985 18.0907 22.3657 19.6157 21.241 20.7404C20.1162 21.8652 18.5912 22.498 17.0005 22.5V22.5Z" fill="#313131"/>
</svg>
