<svg width="50" height="39" viewBox="0 0 50 39" fill="none" xmlns="http://www.w3.org/2000/svg">
<path d="M1.57612 4.36017L22.17 17.1187C22.8619 17.5462 23.7571 17.7488 24.6577 17.7488C25.5584 17.7488 26.4535 17.5462 27.1455 17.1187L47.7393 4.36017C49.0821 3.52734 50.3506 0.287842 47.8876 0.287842H1.43059C-1.03243 0.287842 0.236147 3.52734 1.57612 4.36017V4.36017ZM48.3626 11.3363L27.1455 24.0885C26.2119 24.6522 25.5584 24.7187 24.6577 24.7187C23.7571 24.7187 23.1036 24.6522 22.17 24.0885C21.2364 23.5248 2.58385 12.2483 1.0599 11.3332C-0.0109788 10.6872 4.43745e-06 11.444 4.43745e-06 12.0267V35.1212C4.43745e-06 36.4512 1.55416 38.2878 2.74585 38.2878H46.6794C47.8711 38.2878 49.4253 36.4512 49.4253 35.1212V12.0298C49.4253 11.4472 49.4363 10.6903 48.3626 11.3363V11.3363Z" fill="#6C6C6C"/>
</svg>
