<svg width="50" height="48" viewBox="0 0 50 48" fill="none" xmlns="http://www.w3.org/2000/svg">
<path d="M28.3474 0.67807C26.1055 -0.226023 23.5978 -0.226023 21.3559 0.67807L15.9225 2.86945L39.7203 12.0742L48.0913 8.85872C47.7482 8.57547 47.3633 8.34657 46.95 8.18009L28.3474 0.67807V0.67807ZM49.6618 12.2223L26.7124 21.0421V47.9975C27.2681 47.8865 27.814 47.7211 28.3474 47.5064L46.95 40.0044C47.7513 39.6816 48.4374 39.1282 48.9206 38.4151C49.4037 37.702 49.6618 36.8616 49.6618 36.0017V12.2248V12.2223ZM22.9909 47.9975V21.0421L0.0415039 12.2223V36.0042C0.0419927 36.8637 0.300309 37.7035 0.783394 38.4161C1.26648 39.1287 1.95236 39.6818 2.75325 40.0044L21.3559 47.5064C21.8893 47.7211 22.4351 47.884 22.9909 48V47.9975ZM1.61198 8.85872L24.8516 17.7896L34.5698 14.0534L10.8935 4.89795L2.75325 8.18009C2.33148 8.35036 1.9494 8.57987 1.61198 8.85872V8.85872Z" fill="#6C6C6C"/>
</svg>
