<svg width="40" height="32" viewBox="0 0 40 32" fill="none" xmlns="http://www.w3.org/2000/svg">
<path d="M1.27605 3.42933L17.9427 14.1733C18.5027 14.5333 19.2272 14.704 19.956 14.704C20.6849 14.704 21.4094 14.5333 21.9694 14.1733L38.636 3.42933C39.7227 2.728 40.7494 0 38.756 0H1.15827C-0.835064 0 0.191603 2.728 1.27605 3.42933V3.42933ZM39.1405 9.304L21.9694 20.0427C21.2138 20.5173 20.6849 20.5733 19.956 20.5733C19.2272 20.5733 18.6983 20.5173 17.9427 20.0427C17.1872 19.568 2.0916 10.072 0.85827 9.30133C-0.00839692 8.75733 0.000491872 9.39467 0.000491872 9.88533V29.3333C0.000491872 30.4533 1.25827 32 2.22271 32H37.7783C38.7427 32 40.0005 30.4533 40.0005 29.3333V9.888C40.0005 9.39733 40.0094 8.76 39.1405 9.304V9.304Z" fill="#313131"/>
</svg>
