<svg width="40" height="41" viewBox="0 0 40 41" fill="none" xmlns="http://www.w3.org/2000/svg">
<path d="M17.1085 9.48006L10.3425 1.67006C9.56246 0.77006 8.13246 0.77406 7.22646 1.68206L1.66246 7.25606C0.00646484 8.91406 -0.467536 11.3761 0.490464 13.3501C6.2137 25.2 15.7706 34.7702 27.6125 40.5101C29.5845 41.4681 32.0445 40.9941 33.7005 39.3361L39.3165 33.7101C40.2265 32.8001 40.2285 31.3621 39.3205 30.5821L31.4805 23.8521C30.6605 23.1481 29.3865 23.2401 28.5645 24.0641L25.8365 26.7961C25.6968 26.9424 25.513 27.0389 25.3132 27.0707C25.1134 27.1025 24.9087 27.0678 24.7305 26.9721C20.2714 24.4043 16.5724 20.7005 14.0105 16.2381C13.9145 16.0596 13.8798 15.8545 13.9116 15.6544C13.9434 15.4542 14.0399 15.27 14.1865 15.1301L16.9065 12.4081C17.7305 11.5801 17.8205 10.3001 17.1085 9.47806V9.48006Z" fill="#313131"/>
</svg>
