<svg width="78" height="77" viewBox="0 0 78 77" fill="none" xmlns="http://www.w3.org/2000/svg">
<path d="M76.1005 1.39958C77.712 3.30424 77.9318 6.01472 76.7598 9.53102C75.5878 13.0473 73.61 16.1973 70.8264 18.9811L61.9813 27.8268L70.7715 66.0665C70.9546 66.7624 70.7348 67.3668 70.1122 67.8796L63.0801 73.154C62.8237 73.3738 62.4757 73.4837 62.0362 73.4837C61.8897 73.4837 61.7615 73.4654 61.6517 73.4288C61.1023 73.3189 60.7177 73.0259 60.498 72.5497L45.1701 44.6391L30.941 58.8691L33.8527 69.5279C34.0359 70.1505 33.8894 70.7183 33.4132 71.2311L28.1391 76.5055C27.8095 76.8352 27.3883 77 26.8755 77H26.7656C26.2163 76.9267 25.7768 76.6887 25.4471 76.2858L15.0637 62.4403L1.2192 52.0563C0.816313 51.7999 0.578246 51.3786 0.504994 50.7926C0.468369 50.3164 0.633184 49.8586 0.999442 49.419L6.27355 44.0896C6.60318 43.76 7.02438 43.5952 7.53714 43.5952C7.75689 43.5952 7.90339 43.6135 7.97664 43.6501L18.6347 46.562L32.8638 32.332L4.95502 17.0032C4.44226 16.7101 4.13094 16.2706 4.02107 15.6845C3.94781 15.0985 4.11263 14.604 4.51551 14.2011L11.5477 7.16851C12.0604 6.69234 12.6098 6.54583 13.1958 6.72897L49.73 15.4648L58.5202 6.67403C61.3037 3.89029 64.4535 1.91237 67.9696 0.740273C71.4857 -0.431826 74.196 -0.212058 76.1005 1.39958Z" fill="white"/>
</svg>
