<svg width="86" height="67" viewBox="0 0 86 67" fill="none" xmlns="http://www.w3.org/2000/svg">
<path d="M2.74245 7.573L38.5758 29.7325C39.7798 30.475 41.3373 30.827 42.9044 30.827C44.4716 30.827 46.0291 30.475 47.2331 29.7325L83.0664 7.573C85.4028 6.1265 87.6101 0.5 83.3244 0.5H2.48923C-1.79644 0.5 0.410896 6.1265 2.74245 7.573V7.573ZM84.151 19.6895L47.2331 41.838C45.6087 42.817 44.4716 42.9325 42.9044 42.9325C41.3373 42.9325 40.2002 42.817 38.5758 41.838C36.9513 40.859 4.4959 21.2735 1.84423 19.684C-0.0191032 18.562 7.72117e-06 19.8765 7.72117e-06 20.8885V61C7.72117e-06 63.31 2.70423 66.5 4.77778 66.5H81.2222C83.2958 66.5 86 63.31 86 61V20.894C86 19.882 86.0191 18.5675 84.151 19.6895V19.6895Z" fill="white"/>
</svg>
