<svg width="86" height="69" viewBox="0 0 86 69" fill="none" xmlns="http://www.w3.org/2000/svg">
<path d="M6.875 0.5C3.35547 0.5 0.5 3.35547 0.5 6.875V49.375C0.5 52.8945 3.35547 55.75 6.875 55.75H9C9 62.7891 14.7109 68.5 21.75 68.5C28.7891 68.5 34.5 62.7891 34.5 55.75H51.5C51.5 62.7891 57.2109 68.5 64.25 68.5C71.2891 68.5 77 62.7891 77 55.75H81.25C83.6008 55.75 85.5 53.8508 85.5 51.5C85.5 49.1492 83.6008 47.25 81.25 47.25V32.0164C81.25 29.7586 80.3602 27.5938 78.7664 26L68.5 15.7336C66.9062 14.1398 64.7414 13.25 62.4836 13.25H55.75V6.875C55.75 3.35547 52.8945 0.5 49.375 0.5H6.875ZM55.75 21.75H62.4836L72.75 32.0164V34.5H55.75V21.75ZM28.125 55.75C28.125 59.2695 25.2695 62.125 21.75 62.125C18.2305 62.125 15.375 59.2695 15.375 55.75C15.375 52.2305 18.2305 49.375 21.75 49.375C25.2695 49.375 28.125 52.2305 28.125 55.75ZM64.25 62.125C60.7305 62.125 57.875 59.2695 57.875 55.75C57.875 52.2305 60.7305 49.375 64.25 49.375C67.7695 49.375 70.625 52.2305 70.625 55.75C70.625 59.2695 67.7695 62.125 64.25 62.125Z" fill="white"/>
</svg>
